# xmcd
#
# Track frame offsets:
#	150
#	22419
#	37733
#	61184
#	85088
#	112092
#	131029
#	143515
#	172632
#
# Disc length: 2456 seconds
#
# Revision: 2
# Processed by: cddbd v1.5.2PL0 Copyright (c) Steve Scherf et al.
# Submitted via: dBpowerAMP V4.0
#
DISCID=6d099609
DTITLE=Soulard Blues Band - Trickle Down Blues
DYEAR=2003
DGENRE=Blues
TTITLE0=Shes Crazy
TTITLE1=Front Page Blues
TTITLE2=Tileman
TTITLE3=Trickle Down Blues
TTITLE4=Rock me Baby
TTITLE5=Pico
TTITLE6=Reconsider Baby
TTITLE7=It Don't Matter
TTITLE8=Steppin Out
EXTD=
EXTT0=
EXTT1=
EXTT2=
EXTT3=
EXTT4=
EXTT5=
EXTT6=
EXTT7=
EXTT8=
PLAYORDER=
